<?xml version="1.0" standalone="no"?>
<!DOCTYPE svg PUBLIC "-//W3C//DTD SVG 20010904//EN"
 "http://www.w3.org/TR/2001/REC-SVG-20010904/DTD/svg10.dtd">
<svg version="1.0" xmlns="http://www.w3.org/2000/svg"
 width="512.000000pt" height="512.000000pt" viewBox="0 0 512.000000 512.000000"
 preserveAspectRatio="xMidYMid meet">

<g transform="translate(0.000000,512.000000) scale(0.100000,-0.100000)"
fill="#000000" stroke="none">
<path d="M790 4914 c-220 -26 -352 -59 -475 -118 -203 -99 -279 -234 -209
-374 60 -121 249 -223 495 -268 49 -9 87 -19 85 -23 -15 -26 -686 -1922 -686
-1939 0 -32 43 -72 77 -72 58 0 64 13 194 377 l124 348 3 -991 2 -992 -160
-279 c-97 -170 -160 -291 -160 -307 0 -55 70 -93 120 -66 10 5 76 111 146 235
70 124 131 225 134 225 3 0 64 -101 134 -225 71 -124 137 -230 147 -235 49
-27 119 12 119 66 0 16 -63 137 -160 306 l-160 280 0 1222 0 1222 135 380 c75
208 140 391 146 405 l10 26 167 6 c255 9 427 45 587 122 109 52 175 108 209
177 103 207 -114 398 -539 473 -86 16 -409 28 -485 19z m465 -179 c186 -33
335 -93 393 -160 40 -45 40 -65 0 -110 -58 -67 -208 -128 -392 -160 -91 -15
-346 -32 -346 -23 0 3 11 36 25 72 31 83 31 111 0 141 -29 30 -74 33 -104 8
-11 -10 -36 -61 -55 -113 l-34 -95 -38 4 c-76 6 -260 59 -330 94 -74 37 -134
94 -134 127 0 35 62 92 143 131 86 42 247 84 377 98 115 13 385 6 495 -14z"/>
<path d="M4283 4639 c-29 -11 -77 -43 -107 -70 l-54 -49 -196 0 c-196 0 -197
0 -221 -25 -16 -15 -25 -36 -25 -55 0 -19 9 -40 25 -55 l24 -25 231 0 232 0
61 59 c75 71 94 81 147 81 53 0 72 -10 147 -81 l61 -59 232 0 231 0 24 25 c16
15 25 36 25 55 0 19 -9 40 -25 55 -24 25 -25 25 -221 25 l-197 0 -47 44 c-72
68 -121 89 -215 93 -63 2 -91 -1 -132 -18z"/>
<path d="M4345 4415 l-25 -24 0 -913 0 -913 -401 -118 -400 -119 -84 81 c-47
45 -122 106 -167 135 -191 123 -324 171 -595 212 l-33 5 0 214 0 215 80 40 80
40 0 -150 c0 -147 1 -152 25 -175 l24 -25 591 0 591 0 24 25 25 24 0 431 0
431 -25 24 -24 25 -591 0 -591 0 -24 -25 c-25 -24 -25 -26 -25 -214 l0 -191
-117 -59 -117 -58 -83 55 -83 55 0 194 c0 193 0 194 -25 218 l-24 25 -591 0
-591 0 -24 -25 -25 -24 0 -431 0 -431 25 -24 24 -25 591 0 591 0 24 25 c24 23
25 29 25 165 l0 140 40 -26 40 -27 0 -218 0 -218 -32 -5 c-18 -3 -67 -10 -108
-17 -160 -24 -351 -102 -500 -202 -88 -60 -240 -204 -296 -281 l-39 -54 -305
-4 -305 -3 -47 -28 c-53 -31 -94 -79 -114 -134 -19 -55 -19 -1051 0 -1106 20
-55 61 -103 114 -134 44 -26 55 -28 185 -31 75 -2 137 -7 137 -11 0 -3 -29
-108 -65 -233 -36 -125 -65 -237 -65 -248 0 -31 44 -70 78 -70 56 0 68 22 128
230 30 107 64 225 75 262 l20 68 82 0 c81 0 83 -1 100 -29 9 -16 49 -63 89
-106 l72 -77 -42 -127 c-23 -70 -42 -137 -42 -149 0 -32 43 -72 77 -72 51 0
70 24 105 130 18 55 36 100 40 100 4 0 31 -15 60 -34 192 -122 448 -196 678
-196 230 0 486 74 678 196 29 19 56 34 60 34 4 0 22 -45 40 -100 35 -106 54
-130 105 -130 34 0 77 40 77 72 0 12 -19 79 -42 149 l-42 127 65 70 c102 108
205 273 254 407 10 28 20 52 21 53 1 2 81 24 176 47 132 34 177 49 190 66 16
19 18 47 18 258 l0 237 64 17 c36 9 72 20 80 23 14 6 16 -37 16 -425 l0 -431
-240 -280 c-199 -233 -240 -285 -240 -311 0 -41 39 -79 81 -79 37 0 37 0 249
248 l145 170 5 -190 c5 -185 6 -190 29 -209 30 -24 72 -24 102 0 23 19 24 24
29 209 l5 190 145 -170 c212 -248 212 -248 249 -248 42 0 81 38 81 79 0 26
-41 78 -240 311 l-240 280 0 454 0 455 73 21 c39 12 104 31 142 42 39 11 89
31 112 44 54 31 101 99 115 167 10 49 8 62 -31 201 -79 274 -94 302 -182 350
-54 30 -123 38 -191 22 l-38 -8 0 886 0 887 -25 24 c-15 16 -36 25 -55 25 -19
0 -40 -9 -55 -25z m-2105 -1015 l0 -320 -480 0 -480 0 0 320 0 320 480 0 480
0 0 -320z m1680 0 l0 -320 -480 0 -480 0 0 320 0 320 480 0 480 0 0 -320z
m-1171 -1146 c285 -70 512 -299 587 -589 24 -95 24 -275 0 -370 -62 -242 -225
-437 -449 -540 -112 -51 -196 -69 -327 -69 -132 0 -215 18 -328 70 -223 102
-386 298 -448 539 -23 92 -24 274 -1 368 77 314 341 556 662 606 78 13 221 5
304 -15z m1251 -788 l0 -164 -86 -21 c-48 -12 -88 -20 -90 -19 -2 2 1 33 6 68
5 36 10 108 10 162 l0 96 63 20 c105 34 97 45 97 -142z"/>
<path d="M1385 3535 c-24 -23 -25 -31 -25 -135 0 -104 1 -112 25 -135 15 -16
36 -25 55 -25 19 0 40 9 55 25 24 23 25 31 25 135 0 104 -1 112 -25 135 -15
16 -36 25 -55 25 -19 0 -40 -9 -55 -25z"/>
<path d="M1705 3535 c-24 -23 -25 -31 -25 -135 0 -104 1 -112 25 -135 15 -16
36 -25 55 -25 19 0 40 9 55 25 24 23 25 31 25 135 0 104 -1 112 -25 135 -15
16 -36 25 -55 25 -19 0 -40 -9 -55 -25z"/>
<path d="M2025 3535 c-24 -23 -25 -31 -25 -135 0 -104 1 -112 25 -135 15 -16
36 -25 55 -25 19 0 40 9 55 25 24 23 25 31 25 135 0 104 -1 112 -25 135 -15
16 -36 25 -55 25 -19 0 -40 -9 -55 -25z"/>
<path d="M3065 3535 c-24 -23 -25 -31 -25 -135 0 -104 1 -112 25 -135 15 -16
36 -25 55 -25 19 0 40 9 55 25 24 23 25 31 25 135 0 104 -1 112 -25 135 -15
16 -36 25 -55 25 -19 0 -40 -9 -55 -25z"/>
<path d="M3385 3535 c-24 -23 -25 -31 -25 -135 0 -104 1 -112 25 -135 15 -16
36 -25 55 -25 19 0 40 9 55 25 24 23 25 31 25 135 0 104 -1 112 -25 135 -15
16 -36 25 -55 25 -19 0 -40 -9 -55 -25z"/>
<path d="M3705 3535 c-24 -23 -25 -31 -25 -135 0 -104 1 -112 25 -135 15 -16
36 -25 55 -25 19 0 40 9 55 25 24 23 25 31 25 135 0 104 -1 112 -25 135 -15
16 -36 25 -55 25 -19 0 -40 -9 -55 -25z"/>
<path d="M3705 4255 c-16 -15 -25 -36 -25 -55 0 -19 9 -40 25 -55 l24 -25 231
0 231 0 24 25 c16 15 25 36 25 55 0 19 -9 40 -25 55 l-24 25 -231 0 -231 0
-24 -25z"/>
<path d="M4585 4255 c-16 -15 -25 -36 -25 -55 0 -19 9 -40 25 -55 l24 -25 231
0 231 0 24 25 c16 15 25 36 25 55 0 19 -9 40 -25 55 l-24 25 -231 0 -231 0
-24 -25z"/>
</g>
</svg>
